<?xml version="1.0" encoding="utf-8"?>
<!-- Generator: Adobe Illustrator 21.1.0, SVG Export Plug-In . SVG Version: 6.00 Build 0)  -->
<svg version="1.1" id="Слой_1" xmlns="http://www.w3.org/2000/svg" xmlns:xlink="http://www.w3.org/1999/xlink" x="0px" y="0px"
	 viewBox="0 0 192 280" style="enable-background:new 0 0 192 280;" xml:space="preserve">
<style type="text/css">
	.st0{fill:#FFFFFF;}
	.st1{fill:#F3EBDF;}
	.st2{opacity:0.5;}
	.st3{fill:none;stroke:#F3EBDF;stroke-width:2;stroke-linecap:round;stroke-miterlimit:10;}
	.st4{opacity:0.25;}
</style>
<g>
	<g>
		<path class="st0" d="M31.1,250.4c-5,0-9-4-9-9V60l37.6-37.6h121.4c5,0,9,4,9,9v210c0,5-4,9-9,9H31.1z"/>
		<path class="st1" d="M181.1,23.4c4.4,0,8,3.6,8,8v210c0,4.4-3.6,8-8,8h-150c-4.4,0-8-3.6-8-8v-181l13.3-13.3l23.7-23.7H181.1
			 M181.1,21.4H59.3C44.4,36.3,36.1,44.7,21.1,59.6v181.8c0,5.5,4.5,10,10,10h150c5.5,0,10-4.5,10-10v-210
			C191.1,25.9,186.7,21.4,181.1,21.4L181.1,21.4z"/>
	</g>
	<g class="st2">
		<ellipse class="st1" cx="106.1" cy="274.4" rx="84.3" ry="4.7"/>
	</g>
	<g>
		<line class="st3" x1="94.2" y1="250.6" x2="94.2" y2="273"/>
		<line class="st3" x1="118.1" y1="250.6" x2="118.1" y2="273"/>
	</g>
	<g>
		<g>
			<path class="st1" d="M118.2,203.6H49.4c-0.6,0-1-0.4-1-1s0.4-1,1-1h68.8c0.6,0,1,0.4,1,1S118.7,203.6,118.2,203.6z"/>
		</g>
		<g>
			<path class="st1" d="M162.5,186.1H49.8c-0.6,0-1-0.4-1-1s0.4-1,1-1h112.8c0.6,0,1,0.4,1,1S163.1,186.1,162.5,186.1z"/>
		</g>
		<g>
			<path class="st1" d="M162.5,168.5H49.8c-0.6,0-1-0.4-1-1s0.4-1,1-1h112.8c0.6,0,1,0.4,1,1S163.1,168.5,162.5,168.5z"/>
		</g>
		<g>
			<path class="st1" d="M140.2,151H72.1c-0.6,0-1-0.4-1-1s0.4-1,1-1h68.1c0.6,0,1,0.4,1,1S140.7,151,140.2,151z"/>
		</g>
	</g>
	<g>
		<path class="st1" d="M84.6,110.6H71.1c-0.6,0-0.9-0.5-0.9-0.9c0-0.3,0.1-0.5,0.2-0.6l13.4-26.5c0.3-0.5,0.7-0.7,1-0.7
			c0.5,0,0.9,0.4,0.9,0.8c0,0.2-0.1,0.4-0.2,0.6l-12.9,25.5h12.1V96.6c0-0.6,0.5-0.9,0.9-0.9c0.5,0,0.9,0.3,0.9,0.9v12.2h3.1
			c0.6,0,0.9,0.5,0.9,0.9s-0.3,0.9-0.9,0.9h-3.1v8.3c0,0.6-0.5,0.9-0.9,0.9c-0.5,0-0.9-0.3-0.9-0.9V110.6z"/>
		<path class="st1" d="M94.7,109.5V92.6c0-7.8,4.4-10.7,10.1-10.7S115,84.8,115,92.6v16.9c0,7.8-4.5,10.7-10.2,10.7
			S94.7,117.3,94.7,109.5z M113.1,92.6c0-6-3.1-8.8-8.3-8.8s-8.3,2.8-8.3,8.8v16.9c0,6,3.1,8.8,8.3,8.8s8.3-2.8,8.3-8.8V92.6z
			 M106.5,101c0,0.9-0.7,1.7-1.6,1.7c-0.9,0-1.7-0.8-1.7-1.7s0.7-1.6,1.7-1.6C105.8,99.4,106.5,100.2,106.5,101z"/>
		<path class="st1" d="M133.4,110.6h-13.6c-0.6,0-0.9-0.5-0.9-0.9c0-0.3,0.1-0.5,0.2-0.6l13.4-26.5c0.3-0.5,0.7-0.7,1-0.7
			c0.5,0,0.9,0.4,0.9,0.8c0,0.2-0.1,0.4-0.2,0.6l-12.9,25.5h12.1V96.6c0-0.6,0.5-0.9,0.9-0.9c0.5,0,0.9,0.3,0.9,0.9v12.2h3.1
			c0.6,0,0.9,0.5,0.9,0.9s-0.3,0.9-0.9,0.9h-3.1v8.3c0,0.6-0.5,0.9-0.9,0.9c-0.5,0-0.9-0.3-0.9-0.9V110.6z"/>
	</g>
	<g class="st4">
		<path class="st1" d="M28.1,241.4V69.2c0-2.8,2.2-5,5-5h20.8c5.4,0,9.8-4.4,9.8-9.8v-22c0-2.8,2.2-5,5-5h119.4c-1.4-2.4-4-4-6.9-4
			h-121L36.4,47.1L23.1,60.4v181c0,4.4,3.6,8,8,8h5C31.7,249.4,28.1,245.8,28.1,241.4z"/>
	</g>
	<g>
		<path class="st0" d="M23.6,59l35.3-35.3V50c0,5-4,9-9,9H23.6z"/>
		<path class="st1" d="M57.8,26.2V50c0,4.4-3.6,8-8,8H26L57.8,26.2 M59.8,21.4L21.1,60h28.7c5.5,0,10-4.5,10-10V21.4L59.8,21.4z"/>
	</g>
	<g>
		<g>
			<path class="st1" d="M29.9,41h-28c-0.6,0-1-0.4-1-1s0.4-1,1-1h28c0.6,0,1,0.4,1,1S30.4,41,29.9,41z"/>
		</g>
		<g>
			<path class="st1" d="M29.9,31c-0.3,0-0.5-0.1-0.7-0.3L9.4,10.9c-0.4-0.4-0.4-1,0-1.4s1-0.4,1.4,0l19.8,19.8c0.4,0.4,0.4,1,0,1.4
				C30.4,30.9,30.1,31,29.9,31z"/>
		</g>
		<g>
			<path class="st1" d="M39.9,31c-0.6,0-1-0.4-1-1V2c0-0.6,0.4-1,1-1s1,0.4,1,1v28C40.9,30.5,40.4,31,39.9,31z"/>
		</g>
	</g>
</g>
</svg>
