<svg xmlns="http://www.w3.org/2000/svg" width="31.5" height="35" viewBox="0 0 31.5 35">
  <defs>
    <style>
      .cls-1 {
        fill: #0c191e;
      }
    </style>
  </defs>
  <g id="adress-icon" transform="translate(-3021.75 -4075)">
    <g id="Group_20" data-name="Group 20">
      <path id="Path_21" data-name="Path 21" class="cls-1" d="M3045.083,4086.667a3.5,3.5,0,1,0-3.5-3.5A3.5,3.5,0,0,0,3045.083,4086.667Zm0-5.25a1.75,1.75,0,1,1-1.75,1.75A1.752,1.752,0,0,1,3045.083,4081.417Z"/>
    </g>
    <g id="Group_21" data-name="Group 21">
      <path id="Path_22" data-name="Path 22" class="cls-1" d="M3053.25,4083.167a8.245,8.245,0,0,0-2.392-5.775,8.126,8.126,0,0,0-12.49,1.141c-.288-.016-.576-.033-.868-.033a15.764,15.764,0,1,0,14.376,9.327A8.176,8.176,0,0,0,3053.25,4083.167Zm-8.167-6.417a6.374,6.374,0,0,1,4.537,1.879,6.487,6.487,0,0,1,1.88,4.556,6.312,6.312,0,0,1-1.821,4.578l-4.6,4.595-4.6-4.595a6.316,6.316,0,0,1-1.821-4.578,6.492,6.492,0,0,1,1.88-4.556A6.374,6.374,0,0,1,3045.083,4076.75Zm-21.583,17.5a14.011,14.011,0,0,1,7.228-12.248l2.339,4.254-5.732,2.565a.87.87,0,0,0-.439.438l-1.568,3.464a.875.875,0,0,0,.465,1.17l5.4,2.209-2.867,4.06a.877.877,0,0,0-.16.5v4.007A13.968,13.968,0,0,1,3023.5,4094.25Zm6.416,11.759v-5.065l3.34-4.731a.873.873,0,0,0-.383-1.314l-5.577-2.282,1.057-2.334,6.3-2.818a.874.874,0,0,0,.409-1.22l-2.747-4.994a13.914,13.914,0,0,1,5.158-1,8.5,8.5,0,0,0-.553,2.916,8.065,8.065,0,0,0,2.334,5.833l.39.39-2.6.5a.873.873,0,0,0-.709.859v7a.876.876,0,0,0,.461.771l5.446,2.927.831,5.643a13.958,13.958,0,0,1-13.155-1.082Zm14.8.233-.809-5.484a.874.874,0,0,0-.451-.643l-5.373-2.888v-5.754l3.052-.588,3.948,3.948,5.516-5.516a13.983,13.983,0,0,1-5.883,16.925Z"/>
    </g>
  </g>
</svg>
