<?xml version="1.0" encoding="utf-8"?>
<!-- Generator: Adobe Illustrator 21.1.0, SVG Export Plug-In . SVG Version: 6.00 Build 0)  -->
<svg version="1.1" id="Слой_1" xmlns="http://www.w3.org/2000/svg" xmlns:xlink="http://www.w3.org/1999/xlink" x="0px" y="0px"
	 viewBox="0 0 107.1 28" style="enable-background:new 0 0 107.1 28;" xml:space="preserve">
<style type="text/css">
	.st0{fill:#FFFFFF;}
	.st1{fill:#FF5A00;}
</style>
<g>
	<path class="st0" d="M11.8,14.3c-0.5-0.5-1.1-0.8-1.8-1.1s-1.4-0.4-2.2-0.6l-2.9-0.5c-0.3,0-0.5-0.1-0.8-0.2
		c-0.3-0.1-0.6-0.2-0.8-0.3c-0.1-0.1-0.3-0.3-0.4-0.4c-0.1-0.1-0.1-0.3-0.1-0.5c0-0.5,0.2-0.9,0.7-1.2C3.9,9.2,4.3,9.1,4.8,9
		c0.5-0.1,1.1-0.1,1.7-0.1C7.3,8.9,8,9,8.8,9.2s1.6,0.5,2.4,0.9l1-2c-1.1-0.5-2.1-0.9-3-1.1c-1-0.4-2-0.5-2.9-0.5S4.6,6.6,3.8,6.8
		C3,7,2.3,7.3,1.8,7.7C1.3,8,0.9,8.4,0.7,8.9C0.4,9.4,0.3,10,0.3,10.7c0,0.6,0.1,1,0.2,1.4c0.2,0.4,0.4,0.7,0.6,1
		C1.5,13.5,2,13.8,2.5,14s1.1,0.4,1.8,0.5l3.2,0.6c0.4,0.1,0.8,0.2,1.2,0.3c0.3,0.1,0.7,0.3,0.9,0.4c0.2,0.2,0.3,0.3,0.4,0.5
		c0.1,0.2,0.2,0.4,0.2,0.7c0,0.5-0.2,1-0.6,1.3c-0.4,0.3-0.9,0.5-1.5,0.7c-0.6,0.1-1.3,0.2-2.2,0.2c-1.6,0-3.3-0.4-5.1-1.1L0,20.2
		c0.5,0.2,1,0.4,1.4,0.6c0.5,0.2,0.9,0.3,1.4,0.4c0.5,0.1,0.9,0.2,1.4,0.2c0.5,0.1,1.1,0.1,1.7,0.1c1,0,1.9-0.1,2.8-0.3
		c0.9-0.2,1.7-0.5,2.4-1c0.5-0.3,0.9-0.8,1.2-1.3s0.5-1.2,0.5-2c0-0.6-0.1-1.1-0.3-1.5S12.1,14.6,11.8,14.3z"/>
	<path class="st0" d="M30.8,8.7c-0.5-0.6-1.1-1.1-1.9-1.4c-0.7-0.3-1.5-0.5-2.4-0.5h-7v14.5h2.6v-3.9h4.4c0.8,0,1.5-0.1,2.1-0.4
		c0.7-0.3,1.2-0.6,1.8-1.1c0.5-0.5,0.8-1,1.1-1.7c0.3-0.7,0.5-1.4,0.5-2.1c0-0.7-0.1-1.3-0.3-1.8C31.4,9.7,31.2,9.2,30.8,8.7z
		 M29.2,13.1c-0.1,0.4-0.3,0.7-0.5,1c-0.2,0.3-0.5,0.5-0.9,0.7s-0.7,0.3-1.2,0.3h-4.5v-6h4.3c0.5,0,0.9,0.1,1.3,0.3
		c0.4,0.2,0.7,0.4,1,0.7c0.5,0.5,0.7,1.2,0.7,2C29.4,12.4,29.3,12.7,29.2,13.1z"/>
	<path class="st0" d="M87.5,15.3c0.7-0.9,1-1.9,1-3.2c0-0.8-0.1-1.5-0.4-2.1c-0.3-0.6-0.7-1.2-1.1-1.7c-0.5-0.5-1.1-0.9-1.8-1.1
		c-0.7-0.3-1.4-0.4-2.1-0.4H76v14.5h2.6v-3.9h4.5l2.3,3.9h3c-0.4-0.7-0.9-1.5-1.4-2.2c-0.5-0.8-0.9-1.5-1.4-2.2
		c0.4-0.2,0.8-0.4,1.1-0.7C86.9,15.9,87.2,15.6,87.5,15.3z M85.7,13.2c-0.1,0.4-0.3,0.7-0.6,0.9c-0.2,0.3-0.5,0.5-0.9,0.6
		c-0.4,0.2-0.8,0.2-1.2,0.2h-4.6V9.1H83c0.5,0,0.9,0.1,1.3,0.3c0.4,0.2,0.7,0.4,1,0.7c0.5,0.5,0.7,1.2,0.7,2
		C85.9,12.5,85.9,12.8,85.7,13.2z"/>
	<polygon class="st0" points="93.7,6.8 93.7,9.1 99.1,9.1 99.1,21.2 101.6,21.2 101.6,9.1 107,9.1 107,6.8 	"/>
	<rect x="38.7" y="6.8" class="st0" width="11.2" height="2.4"/>
	<rect x="38.7" y="12.8" class="st1" width="8.9" height="2.3"/>
	<rect x="57.4" y="12.8" class="st1" width="8.9" height="2.3"/>
	<rect x="38.7" y="18.9" class="st0" width="11.2" height="2.4"/>
	<rect x="57.4" y="6.8" class="st0" width="11.2" height="2.4"/>
	<rect x="57.4" y="18.9" class="st0" width="11.2" height="2.4"/>
</g>
</svg>
