<?xml version="1.0" encoding="utf-8"?>
<!-- Generator: Adobe Illustrator 21.1.0, SVG Export Plug-In . SVG Version: 6.00 Build 0)  -->
<svg version="1.1" id="Слой_1" xmlns="http://www.w3.org/2000/svg" xmlns:xlink="http://www.w3.org/1999/xlink" x="0px" y="0px"
	 viewBox="0 0 29 29" style="enable-background:new 0 0 29 29;" xml:space="preserve">
<style type="text/css">
	.st0{fill:#FF4E00;}
</style>
<g>
	<path class="st0" d="M18.4,9.8L9.2,19c-0.4,0.4-0.4,1,0,1.4s1,0.4,1.4,0l9.2-9.2c0.4-0.4,0.4-1,0-1.4C19.4,9.4,18.7,9.4,18.4,9.8
		L18.4,9.8z"/>
</g>
<g>
	<path class="st0" d="M19.8,19l-9.2-9.2c-0.4-0.4-1-0.4-1.4,0s-0.4,1,0,1.4l9.2,9.2c0.4,0.4,1,0.4,1.4,0C20.2,20,20.2,19.3,19.8,19
		L19.8,19z"/>
</g>
</svg>
