<svg xmlns="http://www.w3.org/2000/svg" width="35" height="35.002" viewBox="0 0 35 35.002">
  <defs>
    <style>
      .cls-1 {
        fill: #0c191e;
      }
    </style>
  </defs>
  <g id="phone-icon" transform="translate(-2640 -1379.999)">
    <g id="Group_9" data-name="Group 9">
      <path id="Path_12" data-name="Path 12" class="cls-1" d="M2664.5,1380h-14a1.751,1.751,0,0,0-1.751,1.75v31.5a1.75,1.75,0,0,0,1.751,1.75h14a1.75,1.75,0,0,0,1.751-1.75v-31.5A1.751,1.751,0,0,0,2664.5,1380Zm0,33.252h-14V1408h14Zm0-7h-14v-21h14Zm0-22.752h-14v-1.75h14Z"/>
    </g>
    <g id="Group_10" data-name="Group 10">
      <path id="Path_13" data-name="Path 13" class="cls-1" d="M2655.751,1411.5h3.5a.875.875,0,0,0,0-1.75h-3.5a.875.875,0,0,0,0,1.75Z"/>
    </g>
    <g id="Group_11" data-name="Group 11">
      <path id="Path_14" data-name="Path 14" class="cls-1" d="M2669.062,1392a.875.875,0,1,0-1.238,1.237,6.133,6.133,0,0,1,0,8.663.875.875,0,0,0,1.238,1.238A7.886,7.886,0,0,0,2669.062,1392Z"/>
    </g>
    <g id="Group_12" data-name="Group 12">
      <path id="Path_15" data-name="Path 15" class="cls-1" d="M2672.185,1390.758a.875.875,0,0,0-1.237,1.238,7.886,7.886,0,0,1,0,11.138.875.875,0,0,0,1.237,1.237A9.637,9.637,0,0,0,2672.185,1390.758Z"/>
    </g>
    <g id="Group_13" data-name="Group 13">
      <path id="Path_16" data-name="Path 16" class="cls-1" d="M2647.176,1391.931a.875.875,0,0,0-1.238,0,7.886,7.886,0,0,0,0,11.138.875.875,0,0,0,1.238-1.237,6.135,6.135,0,0,1,0-8.664A.876.876,0,0,0,2647.176,1391.931Z"/>
    </g>
    <g id="Group_14" data-name="Group 14">
      <path id="Path_17" data-name="Path 17" class="cls-1" d="M2644.052,1391.931a.875.875,0,0,0-1.237-1.237,9.636,9.636,0,0,0,0,13.612.875.875,0,0,0,1.237-1.237A7.886,7.886,0,0,1,2644.052,1391.931Z"/>
    </g>
  </g>
</svg>
