<?xml version="1.0" encoding="utf-8"?>
<!-- Generator: Adobe Illustrator 21.1.0, SVG Export Plug-In . SVG Version: 6.00 Build 0)  -->
<svg version="1.1" id="Слой_1" xmlns="http://www.w3.org/2000/svg" xmlns:xlink="http://www.w3.org/1999/xlink" x="0px" y="0px"
	 viewBox="0 0 29 29" style="enable-background:new 0 0 29 29;" xml:space="preserve">
<style type="text/css">
	.st0{fill:#FF4E00;}
</style>
<g>
	<g>
		<path class="st0" d="M14.5,9.9c2.5,0,4.5,2,4.5,4.5s-2,4.5-4.5,4.5s-4.5-2-4.5-4.5S12,9.9,14.5,9.9 M14.5,7.9
			c-3.6,0-6.5,2.9-6.5,6.5s2.9,6.5,6.5,6.5S21,18,21,14.4S18.1,7.9,14.5,7.9L14.5,7.9z"/>
	</g>
	<g>
		<path class="st0" d="M18.3,17.4c-0.3,0-0.6,0.1-0.8,0.3c-0.4,0.4-0.4,1.2,0,1.6l3.3,3.3c0.2,0.2,0.5,0.3,0.8,0.3s0.6-0.1,0.8-0.3
			c0.4-0.4,0.4-1.2,0-1.6l-3.3-3.3C18.9,17.5,18.6,17.4,18.3,17.4L18.3,17.4z"/>
	</g>
</g>
</svg>
